<?xml version="1.0" encoding="UTF-8" standalone="no"?>
<!-- Generator: Adobe Illustrator 19.2.1, SVG Export Plug-In . SVG Version: 6.00 Build 0)  -->

<svg
   version="1.1"
   id="layer"
   x="0px"
   y="0px"
   viewBox="0 0 148 49"
   xml:space="preserve"
   sodipodi:docname="paidy-logo-main-nav.svg"
   inkscape:export-filename="paidy-logo-login.svg"
   inkscape:export-xdpi="32.392639"
   inkscape:export-ydpi="32.392639"
   inkscape:version="1.3.2 (091e20e, 2023-11-25, custom)"
   width="148"
   height="49"
   xmlns:inkscape="http://www.inkscape.org/namespaces/inkscape"
   xmlns:sodipodi="http://sodipodi.sourceforge.net/DTD/sodipodi-0.dtd"
   xmlns="http://www.w3.org/2000/svg"
   xmlns:svg="http://www.w3.org/2000/svg"><defs
   id="defs7"><linearGradient
     id="linearGradient1"
     gradientUnits="userSpaceOnUse"
     x1="34.8517"
     y1="266.12589"
     x2="177.68539"
     y2="397.4841"
     gradientTransform="matrix(1,0,0,-1,8.3375959,439.11338)">
	<stop
   offset="0"
   style="stop-color:#A6009C"
   id="stop1-6" />
	<stop
   offset="1"
   style="stop-color:#FF009C"
   id="stop2-7" />
</linearGradient><linearGradient
     id="linearGradient2"
     gradientUnits="userSpaceOnUse"
     x1="35.5714"
     y1="218.2187"
     x2="132.93671"
     y2="386.8779"
     gradientTransform="matrix(1,0,0,-1,8.3375959,439.11338)">
	<stop
   offset="9.012310e-003"
   style="stop-color:#A6009C"
   id="stop3-9" />
	<stop
   offset="1"
   style="stop-color:#FF009C"
   id="stop4-1" />
</linearGradient><linearGradient
     id="linearGradient3"
     gradientUnits="userSpaceOnUse"
     x1="67.344704"
     y1="226.9454"
     x2="215.6357"
     y2="363.32239"
     gradientTransform="matrix(1,0,0,-1,8.3375959,439.11338)">
	<stop
   offset="0"
   style="stop-color:#A6009C"
   id="stop5-1" />
	<stop
   offset="1"
   style="stop-color:#FF009C"
   id="stop6-4" />
</linearGradient></defs><sodipodi:namedview
   id="namedview7"
   pagecolor="#ffffff"
   bordercolor="#000000"
   borderopacity="0.25"
   inkscape:showpageshadow="2"
   inkscape:pageopacity="0.0"
   inkscape:pagecheckerboard="0"
   inkscape:deskcolor="#d1d1d1"
   showgrid="false"
   inkscape:zoom="7.1963192"
   inkscape:cx="38.70034"
   inkscape:cy="17.856351"
   inkscape:window-width="2560"
   inkscape:window-height="1369"
   inkscape:window-x="-8"
   inkscape:window-y="-8"
   inkscape:window-maximized="1"
   inkscape:current-layer="layer" />
<style
   type="text/css"
   id="style1">
	.st0{fill:url(#SVGID_1_);}
	.st1{fill:url(#SVGID_2_);}
	.st2{fill:url(#SVGID_3_);}
	.st3{fill:#1C1C1C;}
</style>
<linearGradient
   id="SVGID_1_"
   gradientUnits="userSpaceOnUse"
   x1="34.8517"
   y1="266.12589"
   x2="177.68539"
   y2="397.4841"
   gradientTransform="matrix(0.24034815,0,0,-0.24034815,-3.0731269,101.87542)">
	<stop
   offset="0"
   style="stop-color:#A6009C"
   id="stop1" />
	<stop
   offset="1"
   style="stop-color:#FF009C"
   id="stop2" />
</linearGradient>

<linearGradient
   id="SVGID_2_"
   gradientUnits="userSpaceOnUse"
   x1="35.5714"
   y1="218.2187"
   x2="132.93671"
   y2="386.8779"
   gradientTransform="matrix(0.24034815,0,0,-0.24034815,-3.0731269,101.87542)">
	<stop
   offset="9.012310e-003"
   style="stop-color:#A6009C"
   id="stop3" />
	<stop
   offset="1"
   style="stop-color:#FF009C"
   id="stop4" />
</linearGradient>

<linearGradient
   id="SVGID_3_"
   gradientUnits="userSpaceOnUse"
   x1="67.344704"
   y1="226.9454"
   x2="215.6357"
   y2="363.32239"
   gradientTransform="matrix(0.24034815,0,0,-0.24034815,-3.0731269,101.87542)">
	<stop
   offset="0"
   style="stop-color:#A6009C"
   id="stop5" />
	<stop
   offset="1"
   style="stop-color:#FF009C"
   id="stop6" />
</linearGradient>


<path
   class="st0"
   d="m 20.12047,21.015687 c -0.192277,-0.240352 -2.042957,-2.547696 -2.042957,-2.547696 v 14.613166 c 0,1.201749 0.961395,2.163134 2.163133,2.163134 1.201739,0 2.163134,-0.961385 2.163134,-2.163134 V 23.4432 c -0.672973,-0.600874 -1.321914,-1.249806 -2.28331,-2.427513 z"
   id="path2"
   style="fill:#ffffff;stroke-width:0.240347" /><path
   class="st1"
   d="m 39.949193,29.620149 c -0.745078,0 -1.442094,-0.168244 -2.091026,-0.456664 -0.04808,0.456664 0.144206,1.898749 -2.163135,3.581185 -0.168245,0.120169 -9.349547,5.936606 -11.272327,6.897992 -2.475588,1.249814 -5.26363,0.86526 -6.89799,0.02402 C 16.899808,39.402283 8.824109,34.619359 8.511656,34.379005 7.9107816,33.946383 6.9253607,33.129199 6.6129074,32.071662 6.3244885,31.158342 6.3485209,29.716249 6.3485209,29.716249 V 17.554641 c 0,-1.874713 0.5527979,-5.263623 3.9897821,-6.753782 3.677327,-1.3699828 5.696252,0.769109 7.594998,3.100487 0.144223,0.192279 3.89364,5.11942 5.528009,6.585539 2.115059,1.898756 4.278192,2.860141 6.849924,2.860141 6.970093,0 9.613924,-5.503965 9.613924,-9.565847 0,-5.2636317 -4.32627,-9.5418228 -9.613924,-9.5418228 -3.292773,0 -6.297125,1.6584014 -8.051664,4.3743359 0.312453,0.3605209 1.153672,1.3699818 1.273842,1.5382259 0.02401,0.02401 1.418058,1.826647 1.490158,1.922781 0.240353,-0.288412 2.235235,-3.4610069 5.287664,-3.4610069 3.148553,0 5.167477,2.4515459 5.167477,5.1674869 0,2.836101 -2.307333,5.143444 -5.095375,5.143444 -1.658402,0 -2.715935,-0.57683 -4.013815,-1.754536 C 25.071637,15.992381 21.778872,11.666112 21.778872,11.666112 21.490454,11.281557 19.231185,8.5415813 17.596814,7.4600204 15.577891,6.0900356 12.717747,5.2728512 8.920244,6.5467007 5.1227482,7.8205412 1.9501526,11.906456 1.9501526,17.554641 l 0.024015,12.161612 c 0,0.456664 -0.024015,1.970858 0.3364869,3.412949 0.6249068,2.355412 1.7545466,3.677327 4.085916,5.143445 1.1056041,0.624908 7.5228985,4.47048 8.5083255,4.999243 1.874715,1.009463 3.749431,1.514194 6.249052,1.514194 1.922791,0 3.821536,-0.480697 5.407831,-1.297881 2.571731,-1.297875 10.911806,-6.657639 11.440571,-6.994127 2.451555,-1.658403 4.446444,-4.254169 4.230134,-7.450797 -0.64894,0.360521 -1.442093,0.57684 -2.283311,0.57684 z"
   id="path4"
   style="fill:#ffffff;stroke-width:0.240347" /><path
   class="st2"
   d="m 39.949193,27.288772 c 1.418047,0 2.547688,-1.12964 2.547688,-2.54769 0,-1.394026 -1.153673,-2.547688 -2.547688,-2.547688 -1.418053,0 -2.547691,1.129628 -2.547691,2.547688 0,1.394017 1.129638,2.54769 2.547691,2.54769 z"
   id="path6"
   style="fill:#ffffff;stroke-width:0.240347" /><path
   class="st3"
   d="m 57.398469,43.247889 c -1.345951,0 -2.40349,-1.105607 -2.40349,-2.40348 V 23.130745 c 0,-3.340838 2.307345,-8.604461 9.253405,-8.604461 1.201745,0 8.604468,0 8.604468,9.734102 0,9.421644 -5.431874,9.974442 -7.667109,9.974442 -2.956285,0 -4.855032,-1.826647 -5.431863,-2.860142 v 9.493755 c 0.04808,1.249808 -0.985429,2.379448 -2.355411,2.379448 z M 67.949752,24.404594 c 0,-1.826646 -0.312455,-3.268738 -1.033504,-4.302236 -0.721043,-1.033495 -1.754538,-1.514192 -3.028385,-1.514192 -1.273843,0 -2.307339,0.480697 -3.028388,1.514192 -0.64894,0.889287 -0.961386,2.307346 -0.961386,4.302236 0,1.826646 0.312446,3.196631 1.033495,4.061884 0.721042,1.033494 1.754537,1.514191 3.028387,1.514191 1.201739,0 2.235234,-0.480697 2.956277,-1.514191 0.697017,-0.937363 1.033504,-2.307346 1.033504,-4.061884 z m 32.687338,9.493747 c -1.442089,0 -2.643836,-1.105595 -2.643836,-2.475579 V 17.458527 c 0,-1.345949 1.201747,-2.475577 2.643836,-2.475577 1.44209,0 2.64383,1.105595 2.64383,2.475577 v 13.964235 c 0,1.369984 -1.20174,2.475579 -2.64383,2.475579 z m 0.0482,-27.5679299 c -1.514179,0 -2.739962,1.2738478 -2.739962,2.7880419 0,1.514193 1.249823,2.788034 2.739962,2.788034 1.51419,0 2.73997,-1.273841 2.73997,-2.788034 0,-1.5141941 -1.22578,-2.7880419 -2.73997,-2.7880419 z m 22.3043,-0.5768313 c -1.34595,0 -2.40347,1.1055963 -2.40347,2.4034777 V 17.48257 c -0.55282,-0.889293 -1.34596,-1.682436 -2.30735,-2.235244 -0.88929,-0.480697 -1.9228,-0.721042 -3.1005,-0.721042 -2.23523,0 -4.06189,0.961395 -5.50397,2.788041 -1.34594,1.82664 -2.067,4.230128 -2.067,7.186404 0,3.028386 0.72106,5.431874 2.067,7.186413 0.72105,0.889285 1.68243,1.5863 2.86015,1.994888 1.20174,0.40859 2.40347,0.648942 3.67734,0.648942 2.30732,0 4.39836,-0.552799 6.39324,-1.754545 1.9228,-1.201741 2.95627,-3.509084 2.95627,-6.849916 V 8.1810914 C 125.4652,6.7870761 124.33556,5.7535798 122.9896,5.7535798 Z M 119.64873,28.63472 c -0.72106,1.033496 -1.68244,1.514195 -3.0284,1.514195 -1.34594,0 -2.40347,-0.480699 -3.02837,-1.514195 -0.72106,-1.033495 -1.0335,-2.475588 -1.0335,-4.302234 0,-1.682437 0.31244,-3.028386 1.0335,-3.989775 0.72102,-1.033502 1.68243,-1.514191 2.95628,-1.514191 1.27383,0 2.30733,0.480689 3.02838,1.442085 0.72104,1.033495 1.03351,2.403477 1.03351,4.061881 -0.024,1.826646 -0.3365,3.340838 -0.9614,4.302234 z m -28.385116,5.335731 c 1.345958,0 2.403484,-1.105604 2.403484,-2.403488 v -8.700594 c 0,-3.340841 -2.307329,-8.604471 -9.2534,-8.604471 -1.20174,0 -8.604462,0 -8.604462,9.734101 0,9.421645 5.431876,9.974452 7.667109,9.974452 2.956285,0 4.85503,-1.826646 5.43186,-2.860142 v 0.480698 c -0.04815,1.27384 0.985436,2.379444 2.355409,2.379444 z M 80.736351,24.164242 c 0,-1.826647 0.312445,-3.268732 1.033496,-4.302227 0.721041,-1.033495 1.754537,-1.514194 3.028386,-1.514194 1.273846,0 2.307339,0.480699 3.028388,1.514194 0.64894,0.889286 0.961388,2.307336 0.961388,4.302227 0,1.826645 -0.312448,3.196629 -1.033496,4.061881 -0.72105,1.033504 -1.754544,1.514193 -3.02839,1.514193 -1.201739,0 -2.235235,-0.480689 -2.956276,-1.514193 -0.721051,-0.961385 -1.033496,-2.307336 -1.033496,-4.061881 z m 50.713439,17.641553 c 0,0.721052 0.55282,1.273847 1.20175,1.345948 1.44209,0.168244 3.74944,0.168244 5.02327,-0.889282 0.8893,-0.721046 1.5863,-1.754539 2.16313,-3.340842 l 6.22502,-20.81415 c 0.5528,-1.586297 -0.64893,-3.196629 -2.30734,-3.196629 -1.10559,0 -2.06698,0.721051 -2.30733,1.754545 l -3.34084,11.656882 -3.34083,-11.560746 c -0.31246,-1.105597 -1.27386,-1.826648 -2.4756,-1.826648 -1.75454,0 -2.95628,1.754547 -2.40348,3.34084 l 5.43186,17.954007 c 0.31246,1.033495 0.24037,1.754546 -0.31245,2.163134 -0.55279,0.480696 -1.27385,0.721042 -2.23522,0.721042 -0.72106,0 -1.34598,0.648943 -1.34598,1.345947 v 1.345952 z"
   id="path7"
   style="fill:#ffffff;stroke-width:0.240347" /></svg>
